<?xml version="1.0" encoding="utf-8"?>
<!-- Generator: Adobe Illustrator 24.3.0, SVG Export Plug-In . SVG Version: 6.00 Build 0)  -->
<svg version="1.1" id="Layer_1" xmlns="http://www.w3.org/2000/svg" xmlns:xlink="http://www.w3.org/1999/xlink" x="0px" y="0px"
	 width="413px" height="413px" viewBox="0 0 413 413" enable-background="new 0 0 413 413" xml:space="preserve">
<path d="M95,0h223c52.5,0,95,42.5,95,95v223c0,52.5-42.5,95-95,95H95c-52.5,0-95-42.5-95-95V95C0,42.5,42.5,0,95,0z"/>
<path fill="#FFFFFF" d="M311.8,323.4V104.3c0-25.1-37.3-61.3-83.7-61.3c-25.3,0-53.4-0.3-78.7,5c-8,1.7-16.4,6.7-18.2,15.1
	c-6.9,33.5-12.8,51-22.2,83.9c-2.1,7.5-1.2,15.8,6.1,20.1c2.2,1.3,4.3,2.8,8.1,3c11,0.6,24-4.2,26.2-16.1
	c4.8-25.7,10.9-40.6,15.1-66.4c0.7-4.3,3.3-8.4,8.5-8.4c9,0,40.7,0,53,0c25.2,0,47.4,19.7,47.4,36.4c0.4,26.1,0.6,81,0.6,81
	s-71.8,1.2-108.5,1.2c-31.5,0-65.5,36.2-65.5,76.3c0,54.3,34.7,84.5,89.7,84.5c18.9,0,42.2-3.2,57.5-15.1c3.2-2.5,2.5-2.3,5-7
	c2.5-4.7,7.9-15.8,10.1-21.1c2.2-5.3,2.7-7.3,3-11.1c0.3-3.7-1.3-7.5-1-11.1c0.3-3.5,0-4.7,3-10.1s12.1-17.9,15.1-22.1
	c3-4.2,1.7-2.3,3-3c1.3-0.7,4.2-0.8,5-1c0.5,1,2.5,0.7,3,6c0.5,5.3,0.7,19.8,0,26.1c-0.7,6.3-2.2,9-4,12.1s-5.2,3.7-7.1,6
	c-1.8,2.3-2.5,3.7-4,8c-1.5,4.3-4.2,13.1-5,18.1c-0.8,5-0.3,9.3,0,12.1c0.3,2.7,0.2,2.2,2,4c1.8,1.8,5.5,5.7,9.1,7
	c3.5,1.3,8.6,1.3,12.1,1c3.5-0.3,6.8-1.7,9.1-3c2.3-1.3,3.7-2.8,5-5s2.8-3.7,3-8C314,337.2,312.1,326.4,311.8,323.4z M291.6,226.9
	c-0.8,3-1.2,2.7-3,4c-1.8,1.3-6,2.2-8.1,4c-2,1.8-0.7,3-4,7c-19.7,23.8-37.7,47.9-55.5,73.4c-11.4,5.1-21.4,7-34.3,7
	c-23.1,0-47.7-19.8-47.7-43.9c0-21.1,13-44.5,35.5-44.5c34.8-0.4,98.9-3,98.9-3c4.3-1,3.7-3.7,4-4c-0.2-2.3-1.2-11.1-1-14.1
	c0.2-3,0.8-2.5,2-4c1.2-1.5,4.2-4.2,5-5h6c0.3,0.3,1.3,0.5,2,2c0.7,1.5,2,3.5,2,7C293.6,216.4,292.4,223.9,291.6,226.9z"/>
</svg>
